<svg id="visual" viewBox="0 0 1920 300" width="1920" height="300" xmlns="http://www.w3.org/2000/svg" xmlns:xlink="http://www.w3.org/1999/xlink" version="1.1"><rect x="0" y="0" width="1920" height="300" fill="#0e7490"></rect>
<path d="M0 130L274 130L274 137L549 137L549 133L823 133L823 169L1097 169L1097 161L1371 161L1371 149L1646 149L1646 126L1920 126L1920 132L1920 301L1920 301L1646 301L1646 301L1371 301L1371 301L1097 301L1097 301L823 301L823 301L549 301L549 301L274 301L274 301L0 301Z" fill="#000000"></path><path d="M0 199L274 199L274 181L549 181L549 202L823 202L823 211L1097 211L1097 192L1371 192L1371 189L1646 189L1646 218L1920 218L1920 224L1920 301L1920 301L1646 301L1646 301L1371 301L1371 301L1097 301L1097 301L823 301L823 301L549 301L549 301L274 301L274 301L0 301Z" fill="#37b7c3"></path><path d="M0 253L274 253L274 260L549 260L549 236L823 236L823 261L1097 261L1097 259L1371 259L1371 229L1646 229L1646 229L1920 229L1920 271L1920 301L1920 301L1646 301L1646 301L1371 301L1371 301L1097 301L1097 301L823 301L823 301L549 301L549 301L274 301L274 301L0 301Z" fill="#000000"></path></svg>