<svg id="visual" viewBox="0 0 1920 300" width="1920" height="300" xmlns="http://www.w3.org/2000/svg" xmlns:xlink="http://www.w3.org/1999/xlink" version="1.1"><rect x="0" y="0" width="1920" height="300" fill="#0e7490"></rect><path d="M0 138L274 138L274 133L549 133L549 179L823 179L823 182L1097 182L1097 180L1371 180L1371 124L1646 124L1646 179L1920 179L1920 161L1920 301L1920 301L1646 301L1646 301L1371 301L1371 301L1097 301L1097 301L823 301L823 301L549 301L549 301L274 301L274 301L0 301Z" fill="#000000"></path><path d="M0 201L274 201L274 194L549 194L549 218L823 218L823 226L1097 226L1097 230L1371 230L1371 225L1646 225L1646 205L1920 205L1920 199L1920 301L1920 301L1646 301L1646 301L1371 301L1371 301L1097 301L1097 301L823 301L823 301L549 301L549 301L274 301L274 301L0 301Z" fill="#37b7c3"></path><path d="M0 226L274 226L274 224L549 224L549 256L823 256L823 224L1097 224L1097 233L1371 233L1371 271L1646 271L1646 264L1920 264L1920 227L1920 301L1920 301L1646 301L1646 301L1371 301L1371 301L1097 301L1097 301L823 301L823 301L549 301L549 301L274 301L274 301L0 301Z" fill="#000000"></path></svg>